<svg width="27" height="27" viewBox="0 0 27 27" fill="none" xmlns="http://www.w3.org/2000/svg">
<path d="M13.5 2.25C7.30125 2.25 2.25 7.30125 2.25 13.5C2.25 19.6987 7.30125 24.75 13.5 24.75C19.6987 24.75 24.75 19.6987 24.75 13.5C24.75 7.30125 19.6987 2.25 13.5 2.25ZM18.3938 17.5162C18.2363 17.7863 17.955 17.9325 17.6625 17.9325C17.5162 17.9325 17.37 17.8988 17.235 17.8088L13.7475 15.7275C12.8813 15.21 12.24 14.0737 12.24 13.0725V8.46C12.24 7.99875 12.6225 7.61625 13.0837 7.61625C13.545 7.61625 13.9275 7.99875 13.9275 8.46V13.0725C13.9275 13.4775 14.265 14.0737 14.6137 14.2762L18.1012 16.3575C18.5063 16.5938 18.6413 17.1112 18.3938 17.5162Z" fill="#303031"/>
</svg>
