<svg width="58" height="58" viewBox="0 0 58 58" fill="none" xmlns="http://www.w3.org/2000/svg">
<path fill-rule="evenodd" clip-rule="evenodd" d="M2.94531 15.916V9.40234C2.94531 5.84191 5.84197 2.94531 9.40234 2.94531H15.916C16.7293 2.94531 17.3887 2.28596 17.3887 1.47266C17.3887 0.659353 16.7293 0 15.916 0H9.40234C4.21791 0 0 4.21786 0 9.40234V15.916C0 16.7293 0.659353 17.3887 1.47266 17.3887C2.28596 17.3887 2.94531 16.7293 2.94531 15.916ZM15.916 55.0547C16.7293 55.0547 17.3887 55.714 17.3887 56.5273C17.3887 57.3406 16.7293 58 15.916 58H9.40234C4.21791 58 0 53.7821 0 48.5977V42.084C0 41.2707 0.659353 40.6113 1.47266 40.6113C2.28596 40.6113 2.94531 41.2707 2.94531 42.084V48.5977C2.94531 52.158 5.84197 55.0547 9.40234 55.0547H15.916ZM58 42.084V48.5977C58 53.7821 53.7821 58 48.5977 58H42.084C41.2707 58 40.6113 57.3406 40.6113 56.5273C40.6113 55.714 41.2707 55.0547 42.084 55.0547H48.5977C52.158 55.0547 55.0547 52.158 55.0547 48.5977V42.084C55.0547 41.2707 55.714 40.6113 56.5273 40.6113C57.3406 40.6113 58 41.2707 58 42.084ZM58 9.40234V15.916C58 16.7293 57.3406 17.3887 56.5273 17.3887C55.714 17.3887 55.0547 16.7293 55.0547 15.916V9.40234C55.0547 5.84191 52.158 2.94531 48.5977 2.94531H42.084C41.2707 2.94531 40.6113 2.28596 40.6113 1.47266C40.6113 0.659353 41.2707 0 42.084 0H48.5977C53.7821 0 58 4.21786 58 9.40234ZM39.1628 42.8675C39.7833 42.2945 39.8216 41.3269 39.2485 40.7065C38.6754 40.086 37.7079 40.0477 37.0875 40.6207C34.8798 42.66 32.0075 43.7831 28.9999 43.7831C25.9922 43.7831 23.1199 42.66 20.9123 40.6207C20.2917 40.0477 19.3243 40.0861 18.7512 40.7065C18.1781 41.3269 18.2165 42.2945 18.8369 42.8675C21.6114 45.4303 25.2206 46.8417 28.9999 46.8417C32.7791 46.8417 36.3883 45.4303 39.1628 42.8675ZM32.0586 21.8633V32.7383C32.0586 34.8933 30.3054 36.6465 28.1504 36.6465H26.9043C26.0597 36.6465 25.375 35.9618 25.375 35.1172C25.375 34.2726 26.0597 33.5879 26.9043 33.5879H28.1504C28.6189 33.5879 29 33.2068 29 32.7383V21.8633C29 21.0187 29.6847 20.334 30.5293 20.334C31.3739 20.334 32.0586 21.0187 32.0586 21.8633ZM42.5938 26.1396V21.7783C42.5938 20.9806 41.9471 20.334 41.1494 20.334C40.3517 20.334 39.7051 20.9806 39.7051 21.7783V26.1396C39.7051 26.9373 40.3517 27.584 41.1494 27.584C41.9471 27.584 42.5938 26.9373 42.5938 26.1396ZM15.7461 26.1396C15.7461 26.9373 16.3928 27.584 17.1904 27.584C17.9881 27.584 18.6348 26.9373 18.6348 26.1396V21.7783C18.6348 20.9806 17.9881 20.334 17.1904 20.334C16.3928 20.334 15.7461 20.9806 15.7461 21.7783V26.1396Z" fill="#666668"/>
</svg>
