<svg width="28" height="28" viewBox="0 0 28 28" fill="none" xmlns="http://www.w3.org/2000/svg">
<path d="M9.19312 14.0817C9.19312 13.6034 9.58979 13.2067 10.0681 13.2067H16.4615V3.33671C16.4498 2.77671 16.0065 2.33337 15.4465 2.33337C8.57479 2.33337 3.77979 7.12837 3.77979 14C3.77979 20.8717 8.57479 25.6667 15.4465 25.6667C15.9948 25.6667 16.4498 25.2234 16.4498 24.6634V14.945H10.0681C9.57812 14.9567 9.19312 14.56 9.19312 14.0817Z" fill="#171717"/>
<path d="M23.9635 13.4634L20.6502 10.1384C20.3119 9.80006 19.7519 9.80006 19.4135 10.1384C19.0752 10.4767 19.0752 11.0367 19.4135 11.3751L21.2335 13.1951H16.4502V14.9451H21.2219L19.4019 16.7651C19.0635 17.1034 19.0635 17.6634 19.4019 18.0017C19.5769 18.1767 19.7985 18.2584 20.0202 18.2584C20.2419 18.2584 20.4635 18.1767 20.6385 18.0017L23.9519 14.6767C24.3019 14.3501 24.3019 13.8017 23.9635 13.4634Z" fill="#171717"/>
</svg>
