<svg width="27" height="27" viewBox="0 0 27 27" fill="none" xmlns="http://www.w3.org/2000/svg">
<path d="M18.2138 2.25H8.78625C4.69125 2.25 2.25 4.69125 2.25 8.78625V18.2025C2.25 22.3088 4.69125 24.75 8.78625 24.75H18.2025C22.2975 24.75 24.7388 22.3088 24.7388 18.2138V8.78625C24.75 4.69125 22.3088 2.25 18.2138 2.25ZM19.125 19.4062H7.875C7.41375 19.4062 7.03125 19.0238 7.03125 18.5625C7.03125 18.1012 7.41375 17.7188 7.875 17.7188H19.125C19.5863 17.7188 19.9688 18.1012 19.9688 18.5625C19.9688 19.0238 19.5863 19.4062 19.125 19.4062ZM19.125 14.3438H7.875C7.41375 14.3438 7.03125 13.9613 7.03125 13.5C7.03125 13.0387 7.41375 12.6562 7.875 12.6562H19.125C19.5863 12.6562 19.9688 13.0387 19.9688 13.5C19.9688 13.9613 19.5863 14.3438 19.125 14.3438ZM19.125 9.28125H7.875C7.41375 9.28125 7.03125 8.89875 7.03125 8.4375C7.03125 7.97625 7.41375 7.59375 7.875 7.59375H19.125C19.5863 7.59375 19.9688 7.97625 19.9688 8.4375C19.9688 8.89875 19.5863 9.28125 19.125 9.28125Z" fill="#303031"/>
</svg>
