<svg width="27" height="27" viewBox="0 0 27 27" fill="none" xmlns="http://www.w3.org/2000/svg">
<path d="M18 2.25H9C4.5 2.25 2.25 4.5 2.25 9V23.625C2.25 24.2437 2.75625 24.75 3.375 24.75H18C22.5 24.75 24.75 22.5 24.75 18V9C24.75 4.5 22.5 2.25 18 2.25ZM15.75 17.1562H7.875C7.41375 17.1562 7.03125 16.7738 7.03125 16.3125C7.03125 15.8512 7.41375 15.4688 7.875 15.4688H15.75C16.2113 15.4688 16.5938 15.8512 16.5938 16.3125C16.5938 16.7738 16.2113 17.1562 15.75 17.1562ZM19.125 11.5312H7.875C7.41375 11.5312 7.03125 11.1488 7.03125 10.6875C7.03125 10.2263 7.41375 9.84375 7.875 9.84375H19.125C19.5863 9.84375 19.9688 10.2263 19.9688 10.6875C19.9688 11.1488 19.5863 11.5312 19.125 11.5312Z" fill="#303031"/>
</svg>
