<svg width="27" height="27" viewBox="0 0 27 27" fill="none" xmlns="http://www.w3.org/2000/svg">
<path d="M21.375 9C23.239 9 24.75 7.48896 24.75 5.625C24.75 3.76104 23.239 2.25 21.375 2.25C19.511 2.25 18 3.76104 18 5.625C18 7.48896 19.511 9 21.375 9Z" fill="#171717"/>
<path d="M20.0139 10.5075C18.3151 10.0575 16.9426 8.68503 16.4926 6.98628C16.2001 5.90628 16.2676 4.87128 16.5939 3.94878C16.8189 3.31878 16.4364 2.62128 15.7839 2.48628C14.1301 2.13753 12.3414 2.14878 10.4739 2.65503C6.22137 3.84753 2.97011 7.52628 2.36262 11.9025C1.32762 19.35 7.63886 25.6613 15.0864 24.6375C19.4739 24.03 23.1414 20.7788 24.3226 16.515C24.8401 14.6588 24.8514 12.87 24.5026 11.205C24.3676 10.5525 23.6701 10.1813 23.0401 10.395C22.1289 10.7213 21.0939 10.7888 20.0139 10.5075Z" fill="#171717"/>
</svg>
