<svg width="27" height="27" viewBox="0 0 27 27" fill="none" xmlns="http://www.w3.org/2000/svg">
<path d="M23.5236 12.51V7.57123C23.5236 6.64873 22.8261 5.60248 21.9598 5.25373L15.6936 2.68874C14.2873 2.11499 12.7011 2.11499 11.2948 2.68874L5.02857 5.25373C4.17357 5.60248 3.47607 6.64873 3.47607 7.57123V12.51C3.47607 18.0112 7.46982 23.1637 12.9261 24.6712C13.2973 24.7725 13.7023 24.7725 14.0736 24.6712C19.5298 23.1637 23.5236 18.0112 23.5236 12.51ZM14.3436 14.4787V17.4375C14.3436 17.8987 13.9611 18.2812 13.4998 18.2812C13.0386 18.2812 12.6561 17.8987 12.6561 17.4375V14.4787C11.5198 14.1187 10.6873 13.0612 10.6873 11.8125C10.6873 10.26 11.9473 8.99998 13.4998 8.99998C15.0523 8.99998 16.3123 10.26 16.3123 11.8125C16.3123 13.0725 15.4798 14.1187 14.3436 14.4787Z" fill="#303031"/>
</svg>
