<svg width="27" height="27" viewBox="0 0 27 27" fill="none" xmlns="http://www.w3.org/2000/svg">
<path d="M18.2138 2.25H8.78625C4.69125 2.25 2.25 4.69125 2.25 8.78625V18.2138C2.25 22.3088 4.69125 24.75 8.78625 24.75H18.2138C22.3088 24.75 24.75 22.3088 24.75 18.2138V8.78625C24.75 4.69125 22.3088 2.25 18.2138 2.25ZM11.2163 16.7625L8.685 19.2937C8.51625 19.4625 8.3025 19.5413 8.08875 19.5413C7.875 19.5413 7.65 19.4625 7.4925 19.2937L6.64875 18.45C6.31125 18.1237 6.31125 17.5838 6.64875 17.2575C6.975 16.9313 7.50375 16.9313 7.84125 17.2575L8.08875 17.505L10.0237 15.57C10.35 15.2438 10.8788 15.2438 11.2163 15.57C11.5425 15.8963 11.5425 16.4362 11.2163 16.7625ZM11.2163 8.8875L8.685 11.4187C8.51625 11.5875 8.3025 11.6662 8.08875 11.6662C7.875 11.6662 7.65 11.5875 7.4925 11.4187L6.64875 10.575C6.31125 10.2487 6.31125 9.70875 6.64875 9.3825C6.975 9.05625 7.50375 9.05625 7.84125 9.3825L8.08875 9.63L10.0237 7.695C10.35 7.36875 10.8788 7.36875 11.2163 7.695C11.5425 8.02125 11.5425 8.56125 11.2163 8.8875ZM19.755 18.6975H13.8488C13.3875 18.6975 13.005 18.315 13.005 17.8537C13.005 17.3925 13.3875 17.01 13.8488 17.01H19.755C20.2275 17.01 20.5987 17.3925 20.5987 17.8537C20.5987 18.315 20.2275 18.6975 19.755 18.6975ZM19.755 10.8225H13.8488C13.3875 10.8225 13.005 10.44 13.005 9.97875C13.005 9.5175 13.3875 9.135 13.8488 9.135H19.755C20.2275 9.135 20.5987 9.5175 20.5987 9.97875C20.5987 10.44 20.2275 10.8225 19.755 10.8225Z" fill="#303031"/>
</svg>
