<svg width="28" height="27" viewBox="0 0 28 27" fill="none" xmlns="http://www.w3.org/2000/svg">
<path d="M13.7502 2.19482C10.5877 2.19482 8.021 4.65304 8.021 7.68192C8.021 10.7108 10.5877 13.169 13.7502 13.169C16.9127 13.169 19.4793 10.7108 19.4793 7.68192C19.4793 4.65304 16.9127 2.19482 13.7502 2.19482ZM16.2366 7.14418L13.1429 10.1072C13.0283 10.217 12.7877 10.3267 12.6272 10.3596L11.447 10.5133C11.0116 10.5681 10.7137 10.2828 10.7825 9.87675L10.9543 8.74641C10.9772 8.59277 11.0918 8.36232 11.2179 8.25257L14.3116 5.28954C14.8387 4.78473 15.4689 4.5433 16.2481 5.28954C17.0158 6.04676 16.7637 6.63937 16.2366 7.14418Z" fill="#303031"/>
<path d="M13.7501 15.3639C8.00947 15.3639 3.33447 19.0512 3.33447 23.5945C3.33447 23.9018 3.58656 24.1432 3.90739 24.1432H23.5928C23.9136 24.1432 24.1657 23.9018 24.1657 23.5945C24.1657 19.0512 19.4907 15.3639 13.7501 15.3639Z" fill="#303031"/>
</svg>
